<svg xmlns="http://www.w3.org/2000/svg" xmlns:xlink="http://www.w3.org/1999/xlink" xmlns:lucid="lucid" width="1181" height="799.1"><g transform="translate(-539.5 40.5)" lucid:page-tab-id="0_0"><g filter="url(#a)"><path d="M560 322.04a2 2 0 0 1 2-2h116a2 2 0 0 1 2 2v156a2 2 0 0 1-2 2H562a2 2 0 0 1-2-2z" fill="#fff"/><path d="M652.73 347.3h-65.46c-2.26 0-4.2.8-5.78 2.4-1.6 1.6-2.4 3.54-2.4 5.8v49.1c0 2.24.8 4.17 2.4 5.77 1.58 1.6 3.5 2.4 5.77 2.4h65.46c2.26 0 4.2-.8 5.78-2.4 1.6-1.6 2.4-3.53 2.4-5.78v-49.1c0-2.26-.8-4.2-2.4-5.8-1.58-1.6-3.5-2.4-5.77-2.4zm-20.46 57.3h-45V388.2h45zm0-20.47h-45v-16.36h45zm20.46 20.46h-16.37v-36.83h16.37z" fill="#757575"/><use xlink:href="#b" transform="matrix(1,0,0,1,560,433.0400000268257) translate(39.28607373046875 28.05751953125)"/></g><path d="M1264.2 246.16h-12.36v21.36h-10l16.5 22.92 16.5-22.92h-10.63v-21.36zM1261.02 170.44h-34.95c-1.13 0-4.22 0-4.22 4.2v21.24h12.57v-12.84h16.8v12.84h12.57v-21.84c.62-3.36-1.65-3.6-2.78-3.6z" stroke="#000" stroke-opacity="0" fill="#0078d7"/><path d="M1234.74 246.16h-12.58v13.2c0 .84 3.6 3.84 4.44 3.84h20.72v-12.6h-12.58v-4.44zM1303.48 225.4h-3.7c-1.97-25.2-14.24-37.8-31.03-41.16v12.12c12.57 4.2 17.3 16.44 17.62 32.76l-.3 8.4 16.8-.36c4.52 0 7.82 1.2 7.82 5.88v7.32h-42.26v12.6h49.88c.82 0 4.74-3.36 4.74-4.2V243.04c.3-10.56-8.66-17.64-19.58-17.64zM1265.96 202.48h-42.87c-1.45 0-3.1 1.44-3.1 2.88v31.56c0 1.44 1.65 2.52 3.1 2.52h42.86c1.34 0 2.48-1.08 2.48-2.52V205c0-1.32-1.14-2.52-2.48-2.52zm-2.57 4.56l-18.77 14.52-18.45-14.52h37.2zM1224.52 235v-22.44l18.14 13.8c.62.24 1.14.6 1.75.6.52 0 .83-.36 1.34-.6l18.25-14.28v22.68h-39.46v.24z" stroke="#000" stroke-opacity="0" fill="#0078d7"/><use xlink:href="#c" transform="matrix(1,0,0,1,1190,299.43999991078056) translate(34.05 14.4)"/><use xlink:href="#d" transform="matrix(1,0,0,1,1190,299.43999991078056) translate(98.95 14.4)"/><use xlink:href="#e" transform="matrix(1,0,0,1,1190,299.43999991078056) translate(32.574999999999996 36)"/><path d="M1464.2 643.72h-12.36v21.36h-10l16.5 22.92 16.5-22.92h-10.63v-21.36zM1461.02 568h-34.95c-1.13 0-4.22 0-4.22 4.2v21.24h12.57V580.6h16.8v12.84h12.57V571.6c.62-3.36-1.65-3.6-2.78-3.6z" stroke="#000" stroke-opacity="0" fill="#0078d7"/><path d="M1434.74 643.72h-12.58v13.2c0 .84 3.6 3.84 4.44 3.84h20.72v-12.6h-12.58v-4.44zM1503.48 622.96h-3.7c-1.97-25.2-14.24-37.8-31.03-41.16v12.12c12.57 4.2 17.3 16.44 17.62 32.76l-.3 8.4 16.8-.36c4.52 0 7.82 1.2 7.82 5.88v7.32h-42.26v12.6h49.88c.82 0 4.74-3.36 4.74-4.2V640.6c.3-10.56-8.66-17.64-19.58-17.64zM1465.96 600.04h-42.87c-1.45 0-3.1 1.44-3.1 2.88v31.56c0 1.44 1.65 2.52 3.1 2.52h42.86c1.34 0 2.48-1.08 2.48-2.52v-31.92c0-1.32-1.14-2.52-2.48-2.52zm-2.57 4.56l-18.77 14.52-18.45-14.52h37.2zm-38.87 27.96v-22.44l18.14 13.8c.62.24 1.14.6 1.75.6.52 0 .83-.36 1.34-.6l18.25-14.28v22.68h-39.46v.24z" stroke="#000" stroke-opacity="0" fill="#0078d7"/><use xlink:href="#c" transform="matrix(1,0,0,1,1390,697) translate(34.05 14.4)"/><use xlink:href="#d" transform="matrix(1,0,0,1,1390,697) translate(98.95 14.4)"/><use xlink:href="#e" transform="matrix(1,0,0,1,1390,697) translate(32.574999999999996 36)"/><path d="M1516.12 274.65l-3.92 3.98c-.7.74-1.83.74-2.54 0l-29.26-29.36c-1.38-1.4-1.38-3.67 0-5.1l3.96-4 31.8 31.95c.7.7.7 1.83 0 2.53z" stroke="#000" stroke-opacity="0" stroke-width=".71" fill="#50e6ff"/><path d="M1511.54 215.13l3.97 3.98c.7.7.7 1.87 0 2.56l-31.17 31.6-3.96-4c-1.4-1.42-1.44-3.7-.04-5.1l28.68-29.03c.7-.73 1.84-.7 2.54 0z" stroke="#000" stroke-opacity="0" stroke-width=".71" fill="#1490df"/><path d="M1594.2 240.18l3.94 3.98c1.38 1.44 1.38 3.7 0 5.1l-29.17 29.37c-.7.74-1.86.74-2.56 0l-3.9-3.94c-.7-.75-.7-1.88 0-2.58l31.7-31.94z" stroke="#000" stroke-opacity="0" stroke-width=".71" fill="#50e6ff"/><path d="M1598.24 249.27l-3.97 3.98-31.17-31.6c-.7-.68-.7-1.84 0-2.54l3.96-3.97c.7-.73 1.84-.73 2.53 0l28.67 29.04c1.4 1.4 1.36 3.7-.03 5.1z" stroke="#000" stroke-opacity="0" stroke-width=".71" fill="#1490df"/><path d="M1535.67 252.93h-24.08c-.67.1-1.28-.43-1.34-1.2 0-.2.06-.3.12-.53l28.9-57.56c.26-.54.68-.76 1.22-.76h28.5c.7 0 1.32.54 1.38 1.2 0 .3-.12.53-.24.74l-33.92 45.04h33.07c.66 0 1.26.54 1.32 1.2 0 .3-.12.64-.36.85l-54.93 57.68c-.54.33-4.22 3.35-2.4-1.3z" stroke="#000" stroke-opacity="0" fill="url(#f)"/><path d="M1567.77 279.17h-33l35.52-37.26-1.07-2.06h-33l18.72-25.36h13.3l-5.14 7.12 24.77 25.03-25.34 25.5zm-57 0h11.76l13.1-26.26h-24.07l-1.16-1.68 18.34-36.6v-.14l-18.44.06 5.24 7.06-24.75 25.03 25.32 25.43z" stroke="#000" stroke-opacity="0" fill-opacity="0"/><use xlink:href="#g" transform="matrix(1,0,0,1,1449.3008921398216,309.8799998215611) translate(32.55 14.4)"/><use xlink:href="#h" transform="matrix(1,0,0,1,1449.3008921398216,309.8799998215611) translate(106.45 14.4)"/><path d="M1616.82 675.77l-3.92 3.98c-.7.74-1.83.74-2.54 0l-29.26-29.36c-1.38-1.4-1.38-3.68 0-5.12l3.96-3.98 31.8 31.94c.7.7.7 1.83 0 2.53z" stroke="#000" stroke-opacity="0" stroke-width=".71" fill="#50e6ff"/><path d="M1612.24 616.25l3.97 3.98c.7.7.7 1.86 0 2.55l-31.17 31.6-3.96-4c-1.4-1.42-1.44-3.7-.04-5.1l28.68-29.03c.7-.74 1.84-.7 2.54 0z" stroke="#000" stroke-opacity="0" stroke-width=".71" fill="#1490df"/><path d="M1694.9 641.3l3.94 3.98c1.38 1.44 1.38 3.7 0 5.1l-29.17 29.37c-.7.74-1.86.74-2.56 0l-3.9-3.94c-.7-.73-.7-1.86 0-2.56l31.7-31.94z" stroke="#000" stroke-opacity="0" stroke-width=".71" fill="#50e6ff"/><path d="M1698.93 650.4l-3.96 3.97-31.18-31.6c-.7-.68-.7-1.84 0-2.54l3.96-3.98c.7-.74 1.84-.74 2.53 0l28.67 29.04c1.4 1.38 1.36 3.7-.04 5.1z" stroke="#000" stroke-opacity="0" stroke-width=".71" fill="#1490df"/><path d="M1636.37 654.05h-24.08c-.68.1-1.28-.43-1.34-1.2 0-.2.06-.3.12-.53l28.9-57.56c.25-.54.68-.76 1.22-.76h28.5c.7 0 1.32.54 1.38 1.2 0 .3-.12.53-.24.74l-33.92 45.04h33.07c.66 0 1.26.54 1.32 1.2 0 .3-.12.64-.36.85l-54.93 57.67c-.54.33-4.22 3.35-2.4-1.3z" stroke="#000" stroke-opacity="0" fill="url(#i)"/><path d="M1668.47 680.3h-33l35.52-37.27-1.08-2.07h-33l18.73-25.36h13.3l-5.14 7.12 24.76 25.03-25.33 25.5zm-57 0h11.76l13.1-26.27h-24.07l-1.17-1.68 18.34-36.62v-.13l-18.44.06 5.24 7.06-24.76 25.03 25.34 25.43z" stroke="#000" stroke-opacity="0" fill-opacity="0"/><use xlink:href="#g" transform="matrix(1,0,0,1,1550,711) translate(32.55 14.4)"/><use xlink:href="#h" transform="matrix(1,0,0,1,1550,711) translate(106.45 14.4)"/><path d="M680.5 400.04h143.22" stroke="#3a414a" fill="none"/><path d="M680.5 400.5h-.5v-.94h.5z" stroke="#3a414a" stroke-width=".05" fill="#3a414a"/><path d="M838.5 400.04l-14.28 4.63v-9.27z" stroke="#3a414a" fill="#3a414a"/><path d="M945.83 426.44H977a23 23 0 0 0 23-23v-158.4a23 23 0 0 1 23-23h180.62" stroke="#3a414a" fill="none"/><path d="M945.84 426.92h-.5v-.96h.5z" stroke="#3a414a" stroke-width=".05" fill="#3a414a"/><path d="M1218.38 222.04l-14.26 4.64v-9.28z" stroke="#3a414a" fill="#3a414a"/><path d="M945.83 426.44H977a23 23 0 0 1 23 23V597a23 23 0 0 0 23 23h140.12" stroke="#3a414a" fill="none"/><path d="M945.84 426.92h-.5v-.96h.5z" stroke="#3a414a" stroke-width=".05" fill="#3a414a"/><path d="M1177.88 620l-14.26 4.63v-9.26z" stroke="#3a414a" fill="#3a414a"/><path d="M1323.56 246.88h139.47" stroke="#3a414a" fill="none"/><path d="M1323.57 247.35h-.5v-.94h.5z" stroke="#3a414a" stroke-width=".05" fill="#3a414a"/><path d="M1477.8 246.88l-14.27 4.63v-9.25z" stroke="#3a414a" fill="#3a414a"/><path d="M1523.56 644.44h41.92" stroke="#3a414a" fill="none"/><path d="M1523.57 644.9h-.5V644h.5z" stroke="#3a414a" stroke-width=".05" fill="#3a414a"/><path d="M1580.25 644.44l-14.27 4.63v-9.27z" stroke="#3a414a" fill="#3a414a"/><path d="M1539.3 193.13v-68.75" stroke="#3a414a" fill="none"/><path d="M1539.3 193.64l-.47.93v-1.45h.9z" stroke="#3a414a" stroke-width=".05" fill="#3a414a"/><path d="M1539.3 109.62l4.64 14.26h-9.27z" stroke="#3a414a" fill="#3a414a"/><g filter="url(#j)"><path d="M1600 402a2 2 0 0 1 2-2h84a2 2 0 0 1 2 2v124a2 2 0 0 1-2 2h-84a2 2 0 0 1-2-2z" fill="#fff"/><path d="M1668 420h-48c-1.66 0-3.07.6-4.24 1.76-1.17 1.17-1.76 2.58-1.76 4.24v36c0 1.66.6 3.07 1.76 4.24 1.17 1.17 2.58 1.76 4.24 1.76h48c1.66 0 3.07-.6 4.24-1.76 1.17-1.17 1.76-2.58 1.76-4.24v-36c0-1.66-.6-3.07-1.76-4.24-1.17-1.17-2.58-1.76-4.24-1.76zm-15 42h-33v-12h33zm0-15h-33v-12h33zm15 15h-12v-27h12z" fill="#757575"/><use xlink:href="#k" transform="matrix(1,0,0,1,1600,481) translate(13.3539365234375 28.05751953125)"/><use xlink:href="#l" transform="matrix(1,0,0,1,1600,481) translate(67.1587099609375 28.05751953125)"/></g><g filter="url(#j)"><path d="M1495.3-18a2 2 0 0 1 2-2h84a2 2 0 0 1 2 2v124a2 2 0 0 1-2 2h-84a2 2 0 0 1-2-2z" fill="#fff"/><path d="M1563.3 0h-48c-1.66 0-3.07.6-4.24 1.76-1.17 1.17-1.76 2.58-1.76 4.24v36c0 1.66.6 3.07 1.76 4.24 1.17 1.17 2.58 1.76 4.24 1.76h48c1.66 0 3.07-.6 4.24-1.76 1.17-1.17 1.76-2.58 1.76-4.24V6c0-1.66-.6-3.07-1.76-4.24C1566.37.6 1564.96 0 1563.3 0zm-15 42h-33V30h33zm0-15h-33V15h33zm15 15h-12V15h12z" fill="#757575"/><use xlink:href="#k" transform="matrix(1,0,0,1,1495.3008921398216,61) translate(13.3539365234375 28.05751953125)"/><use xlink:href="#m" transform="matrix(1,0,0,1,1495.3008921398216,61) translate(67.1587099609375 28.05751953125)"/></g><path d="M1641.2 593.5l1.05-49.12" stroke="#3a414a" fill="none"/><path d="M1641.66 593.5v.5h-.46l-.5.12v-.64z" stroke="#3a414a" stroke-width=".05" fill="#3a414a"/><path d="M1642.57 529.62l4.33 14.36-9.27-.2z" stroke="#3a414a" fill="#3a414a"/><path d="M737.96 330h-35.92c-1.08 0-2.04 1.24-2.04 2.64v34.72c0 1.4.96 2.64 2.04 2.64h35.92c1.08 0 2.04-1.24 2.04-2.64v-34.72c0-1.56-.96-2.64-2.04-2.64zm-3 5.28l-15.2 15.28-15.08-15.44h30.28v.16zm-30.76 29.44v-23.2l14.36 14.44c.36.48.84.64 1.32.64.48 0 .84-.16 1.32-.64l14.96-15.08v23.64H704.2v.2z" stroke="#000" stroke-opacity="0" fill="#2a3282"/><use xlink:href="#n" transform="matrix(1,0,0,1,670,379) translate(37.525 14.4)"/><path d="M797.96 330h-35.92c-1.08 0-2.04 1.24-2.04 2.64v34.72c0 1.4.96 2.64 2.04 2.64h35.92c1.08 0 2.04-1.24 2.04-2.64v-34.72c0-1.56-.96-2.64-2.04-2.64zm-3 5.28l-15.2 15.28-15.08-15.44h30.28v.16zm-30.76 29.44v-23.2l14.36 14.44c.36.48.84.64 1.32.64.48 0 .84-.16 1.32-.64l14.96-15.08v23.64H764.2v.2z" stroke="#000" stroke-opacity="0" fill="#2a3282"/><use xlink:href="#o" transform="matrix(1,0,0,1,730,379) translate(37.525 14.4)"/><path d="M1077.96 142.44h-35.92c-1.08 0-2.04 1.24-2.04 2.64v34.72c0 1.4.96 2.64 2.04 2.64h35.92c1.08 0 2.04-1.24 2.04-2.64v-34.72c0-1.56-.96-2.64-2.04-2.64zm-3 5.28l-15.2 15.28-15.08-15.44h30.28v.16zm-30.76 29.44v-23.2l14.36 14.44c.36.48.84.64 1.32.64.48 0 .84-.16 1.32-.64l14.96-15.08v23.64h-31.96v.2z" stroke="#000" stroke-opacity="0" fill="#2a3282"/><use xlink:href="#n" transform="matrix(1,0,0,1,1010,191.43999991078056) translate(37.525 14.4)"/><path d="M1137.96 142.44h-35.92c-1.08 0-2.04 1.24-2.04 2.64v34.72c0 1.4.96 2.64 2.04 2.64h35.92c1.08 0 2.04-1.24 2.04-2.64v-34.72c0-1.56-.96-2.64-2.04-2.64zm-3 5.28l-15.2 15.28-15.08-15.44h30.28v.16zm-30.76 29.44v-23.2l14.36 14.44c.36.48.84.64 1.32.64.48 0 .84-.16 1.32-.64l14.96-15.08v23.64h-31.96v.2z" stroke="#000" stroke-opacity="0" fill="#2a3282"/><use xlink:href="#o" transform="matrix(1,0,0,1,1070,191.43999991078056) translate(37.525 14.4)"/><path d="M1361.02 551h-35.92c-1.08 0-2.04 1.24-2.04 2.64v34.72c0 1.4.96 2.64 2.04 2.64h35.92c1.08 0 2.04-1.24 2.04-2.64v-34.72c0-1.56-.96-2.64-2.04-2.64zm-3 5.28l-15.2 15.28-15.08-15.44h30.28v.16zm-30.76 29.44v-23.2l14.36 14.44c.36.48.84.64 1.32.64.48 0 .84-.16 1.32-.64l14.96-15.08v23.64h-31.96v.2z" stroke="#000" stroke-opacity="0" fill="#2a3282"/><use xlink:href="#o" transform="matrix(1,0,0,1,1293.0568882796435,600) translate(37.525 14.4)"/><path d="M852.32 411.8l-7.16-12.24.32-3.24h6.84V362.6h21.17V350H844.3c-2.53 0-4.22 0-4.22 4.32v84.48c.22.84 2 4.2 4.53 4.2h28.88v-12.6H852.3v-18.6z" stroke="#000" stroke-opacity="0" fill="#0078d7"/><path d="M890.35 399.32l-12.64 18.24v29.52h-11.8L884.04 470l18.32-22.92h-12M890.35 366.92H877.7v29.52h12.65" stroke="#000" stroke-opacity="0" fill="#0078d7"/><path d="M873.5 361.16h-12.54V401h-8.32l14.32 19.68 15.5-19.68h-8.97v-39.84z" stroke="#000" stroke-opacity="0" fill="#0078d7"/><path d="M885.08 350h-12.53c.84 0 4.84.6 4.84 4.08v25.68h12.63v-25.68c.32-3.72-3.8-4.08-4.95-4.08zM923 400.64h-3.7c-.3-18.84-10-31.68-24.32-36.84v13.68c9.37 6.12 13.06 16.68 13.38 30.36l-.32 5.28h13.8c7.16.24 11.7 4.8 11.7 9.36v7.8h-38.56v12.6h45.18c3.17 0 5.17-1.2 5.17-4.56v-15.84c-.32-11.28-10.85-21.84-22.33-21.84z" stroke="#000" stroke-opacity="0" fill="#0078d7"/><use xlink:href="#c" transform="matrix(1,0,0,1,810,479) translate(11.599999999999994 14.4)"/><use xlink:href="#p" transform="matrix(1,0,0,1,810,479) translate(76.5 14.4)"/><use xlink:href="#q" transform="matrix(1,0,0,1,810,479) translate(112.5 14.4)"/><path d="M1077.96 540h-35.92c-1.08 0-2.04 1.24-2.04 2.64v34.72c0 1.4.96 2.64 2.04 2.64h35.92c1.08 0 2.04-1.24 2.04-2.64v-34.72c0-1.56-.96-2.64-2.04-2.64zm-3 5.28l-15.2 15.28-15.08-15.44h30.28v.16zm-30.76 29.44v-23.2l14.36 14.44c.36.48.84.64 1.32.64.48 0 .84-.16 1.32-.64l14.96-15.08v23.64h-31.96v.2z" stroke="#000" stroke-opacity="0" fill="#2a3282"/><use xlink:href="#n" transform="matrix(1,0,0,1,1010,589) translate(37.525 14.4)"/><path d="M1137.96 540h-35.92c-1.08 0-2.04 1.24-2.04 2.64v34.72c0 1.4.96 2.64 2.04 2.64h35.92c1.08 0 2.04-1.24 2.04-2.64v-34.72c0-1.56-.96-2.64-2.04-2.64zm-3 5.28l-15.2 15.28-15.08-15.44h30.28v.16zm-30.76 29.44v-23.2l14.36 14.44c.36.48.84.64 1.32.64.48 0 .84-.16 1.32-.64l14.96-15.08v23.64h-31.96v.2z" stroke="#000" stroke-opacity="0" fill="#2a3282"/><use xlink:href="#o" transform="matrix(1,0,0,1,1070,589) translate(37.525 14.4)"/><path d="M1180 580h103.06v80H1180z" stroke="#282c33" fill="#aefe7d"/><path d="M1212.77 597.36h37l-11.13 21.6v27.28l-14.02-.16v-27.44z" stroke="#282c33" fill="#818181"/><use xlink:href="#r" transform="matrix(1,0,0,1,1180,665) translate(15.524999999999999 14.4)"/><use xlink:href="#s" transform="matrix(1,0,0,1,1180,665) translate(32.099999999999994 36)"/><path d="M1284.06 620h67.52a.2.2 0 0 0 .2-.2.2.2 0 0 1 .2-.2h51.64" stroke="#3a414a" fill="none"/><path d="M1284.07 620.48h-.5v-.96h.5z" stroke="#3a414a" stroke-width=".05" fill="#3a414a"/><path d="M1418.38 619.6l-14.26 4.63v-9.26z" stroke="#3a414a" fill="#3a414a"/><path d="M1389.14 178.44h-35.92c-1.08 0-2.04 1.24-2.04 2.64v34.72c0 1.4.96 2.64 2.04 2.64h35.92c1.08 0 2.04-1.24 2.04-2.64v-34.72c0-1.56-.96-2.64-2.04-2.64zm-3 5.28l-15.2 15.28-15.08-15.44h30.28v.16zm-30.76 29.44v-23.2l14.36 14.44c.36.48.84.64 1.32.64.48 0 .84-.16 1.32-.64l14.96-15.08v23.64h-31.96v.2z" stroke="#000" stroke-opacity="0" fill="#2a3282"/><g><use xlink:href="#n" transform="matrix(1,0,0,1,1321.1788902097326,227.43999991078056) translate(37.525 14.4)"/></g><path d="M1449.14 178.44h-35.92c-1.08 0-2.04 1.24-2.04 2.64v34.72c0 1.4.96 2.64 2.04 2.64h35.92c1.08 0 2.04-1.24 2.04-2.64v-34.72c0-1.56-.96-2.64-2.04-2.64zm-3 5.28l-15.2 15.28-15.08-15.44h30.28v.16zm-30.76 29.44v-23.2l14.36 14.44c.36.48.84.64 1.32.64.48 0 .84-.16 1.32-.64l14.96-15.08v23.64h-31.96v.2z" stroke="#000" stroke-opacity="0" fill="#2a3282"/><g><use xlink:href="#o" transform="matrix(1,0,0,1,1381.1788902097326,227.43999991078056) translate(37.525 14.4)"/></g><defs><path d="M631-137c179 0 314-70 314-231 0-71-25-127-75-166s-141-77-272-115c-165-47-285-106-360-175s-112-154-112-255c0-245 231-397 495-397 206 0 369 89 449 218 43 68 65 142 65 223H942c0-184-129-283-321-283-172 0-299 76-301 236 0 59 26 109 76 150s135 78 256 113c205 59 345 116 436 256 35 53 50 119 50 193-2 256-231 398-507 390C333 12 90-129 80-422h193c0 187 160 285 358 285" id="t"/><path d="M599-131c141 0 220-65 285-146l113 88C906-50 770 20 589 20 281 21 93-214 93-545c0-223 93-397 233-485 74-48 154-72 240-72 300 2 449 218 445 537v77H278c0 197 129 357 321 357zm227-509c-3-180-88-310-260-310-170 0-264 140-282 310h542" id="u"/><path d="M589-945c-131 0-219 81-264 174V0H140v-1082h175l6 136c83-104 191-156 324-156 229 0 346 129 346 387V0H806v-716c-2-153-65-229-217-229" id="v"/><path d="M520 20C244 20 95-247 95-550c0-298 151-550 427-552 127 0 227 43 301 130v-564h185V0H838l-9-116C755-25 652 20 520 20zm48-965c-210 0-288 177-288 416 0 218 87 392 286 392 117 0 203-53 257-158v-497c-55-102-140-153-255-153" id="w"/><path d="M663-916c-163-27-288 18-338 148V0H140v-1082h180l3 125c61-97 147-145 258-145 36 0 63 5 82 14v172" id="x"/><g id="b"><use transform="matrix(0.0065107421875,0,0,0.0065107421875,0,0)" xlink:href="#t"/><use transform="matrix(0.0065107421875,0,0,0.0065107421875,7.9105517578125,0)" xlink:href="#u"/><use transform="matrix(0.0065107421875,0,0,0.0065107421875,14.97470703125,0)" xlink:href="#v"/><use transform="matrix(0.0065107421875,0,0,0.0065107421875,22.331845703124998,0)" xlink:href="#w"/><use transform="matrix(0.0065107421875,0,0,0.0065107421875,29.8517529296875,0)" xlink:href="#u"/><use transform="matrix(0.0065107421875,0,0,0.0065107421875,36.915908203125,0)" xlink:href="#x"/></g><filter id="a" filterUnits="objectBoundingBox" x="-.01" y="0" width="1.02" height="1.02"><feOffset result="offOut" in="SourceAlpha" dy="1"/><feGaussianBlur result="blurOut" in="offOut" stdDeviation=".75"/><feColorMatrix result="colorOut" in="blurOut" values="0 0 0 0 0 0 0 0 0 0 0 0 0 0 0 0 0 0 0.4 0"/><feBlend in="SourceGraphic" in2="colorOut"/></filter><path d="M185-189c-5-48-123-54-124 2 14 75 158 14 163 119 3 78-121 87-175 55-17-10-28-26-33-46l33-7c5 56 141 63 141-1 0-78-155-14-162-118-5-82 145-84 179-34 5 7 8 16 11 25" id="y"/><path d="M100-194c63 0 86 42 84 106H49c0 40 14 67 53 68 26 1 43-12 49-29l28 8c-11 28-37 45-77 45C44 4 14-33 15-96c1-61 26-98 85-98zm52 81c6-60-76-77-97-28-3 7-6 17-6 28h103" id="z"/><path d="M114-163C36-179 61-72 57 0H25l-1-190h30c1 12-1 29 2 39 6-27 23-49 58-41v29" id="A"/><path d="M108 0H70L1-190h34L89-25l56-165h34" id="B"/><path d="M24-231v-30h32v30H24zM24 0v-190h32V0H24" id="C"/><path d="M96-169c-40 0-48 33-48 73s9 75 48 75c24 0 41-14 43-38l32 2c-6 37-31 61-74 61-59 0-76-41-82-99-10-93 101-131 147-64 4 7 5 14 7 22l-32 3c-4-21-16-35-41-35" id="D"/><g id="c"><use transform="matrix(0.05,0,0,0.05,0,0)" xlink:href="#y"/><use transform="matrix(0.05,0,0,0.05,12,0)" xlink:href="#z"/><use transform="matrix(0.05,0,0,0.05,22,0)" xlink:href="#A"/><use transform="matrix(0.05,0,0,0.05,27.950000000000003,0)" xlink:href="#B"/><use transform="matrix(0.05,0,0,0.05,36.95,0)" xlink:href="#C"/><use transform="matrix(0.05,0,0,0.05,40.900000000000006,0)" xlink:href="#D"/><use transform="matrix(0.05,0,0,0.05,49.900000000000006,0)" xlink:href="#z"/></g><path d="M160-131c35 5 61 23 61 61C221 17 115-2 30 0v-248c76 3 177-17 177 60 0 33-19 50-47 57zm-97-11c50-1 110 9 110-42 0-47-63-36-110-37v79zm0 115c55-2 124 14 124-45 0-56-70-42-124-44v89" id="E"/><path d="M84 4C-5 8 30-112 23-190h32v120c0 31 7 50 39 49 72-2 45-101 50-169h31l1 190h-30c-1-10 1-25-2-33-11 22-28 36-60 37" id="F"/><path d="M135-143c-3-34-86-38-87 0 15 53 115 12 119 90S17 21 10-45l28-5c4 36 97 45 98 0-10-56-113-15-118-90-4-57 82-63 122-42 12 7 21 19 24 35" id="G"/><g id="d"><use transform="matrix(0.05,0,0,0.05,0,0)" xlink:href="#E"/><use transform="matrix(0.05,0,0,0.05,12,0)" xlink:href="#F"/><use transform="matrix(0.05,0,0,0.05,22,0)" xlink:href="#G"/></g><path d="M115-194c53 0 69 39 70 98 0 66-23 100-70 100C84 3 66-7 56-30L54 0H23l1-261h32v101c10-23 28-34 59-34zm-8 174c40 0 45-34 45-75 0-40-5-75-45-74-42 0-51 32-51 76 0 43 10 73 51 73" id="H"/><path d="M115-194c55 1 70 41 70 98S169 2 115 4C84 4 66-9 55-30l1 105H24l-1-265h31l2 30c10-21 28-34 59-34zm-8 174c40 0 45-34 45-75s-6-73-45-74c-42 0-51 32-51 76 0 43 10 73 51 73" id="I"/><path d="M59-47c-2 24 18 29 38 22v24C64 9 27 4 27-40v-127H5v-23h24l9-43h21v43h35v23H59v120" id="J"/><path d="M100-194c62-1 85 37 85 99 1 63-27 99-86 99S16-35 15-95c0-66 28-99 85-99zM99-20c44 1 53-31 53-75 0-43-8-75-51-75s-53 32-53 75 10 74 51 75" id="K"/><path d="M117-194c89-4 53 116 60 194h-32v-121c0-31-8-49-39-48C34-167 62-67 57 0H25l-1-190h30c1 10-1 24 2 32 11-22 29-35 61-36" id="L"/><g id="e"><use transform="matrix(0.05,0,0,0.05,0,0)" xlink:href="#y"/><use transform="matrix(0.05,0,0,0.05,12,0)" xlink:href="#F"/><use transform="matrix(0.05,0,0,0.05,22,0)" xlink:href="#H"/><use transform="matrix(0.05,0,0,0.05,32,0)" xlink:href="#G"/><use transform="matrix(0.05,0,0,0.05,41,0)" xlink:href="#D"/><use transform="matrix(0.05,0,0,0.05,50,0)" xlink:href="#A"/><use transform="matrix(0.05,0,0,0.05,55.95,0)" xlink:href="#C"/><use transform="matrix(0.05,0,0,0.05,59.900000000000006,0)" xlink:href="#I"/><use transform="matrix(0.05,0,0,0.05,69.9,0)" xlink:href="#J"/><use transform="matrix(0.05,0,0,0.05,74.9,0)" xlink:href="#C"/><use transform="matrix(0.05,0,0,0.05,78.85000000000001,0)" xlink:href="#K"/><use transform="matrix(0.05,0,0,0.05,88.85000000000001,0)" xlink:href="#L"/></g><linearGradient gradientUnits="userSpaceOnUse" id="f" x1="1538.75" y1="300.07" x2="1538.75" y2="192.03"><stop offset="0%" stop-color="#fea11b"/><stop offset="28.4%" stop-color="#fea51a"/><stop offset="54.7%" stop-color="#feb018"/><stop offset="80%" stop-color="#ffc314"/><stop offset="100%" stop-color="#ffd70f"/></linearGradient><path d="M63-220v92h138v28H63V0H30v-248h175v28H63" id="M"/><g id="g"><use transform="matrix(0.05,0,0,0.05,0,0)" xlink:href="#M"/><use transform="matrix(0.05,0,0,0.05,10.950000000000001,0)" xlink:href="#F"/><use transform="matrix(0.05,0,0,0.05,20.950000000000003,0)" xlink:href="#L"/><use transform="matrix(0.05,0,0,0.05,30.950000000000003,0)" xlink:href="#D"/><use transform="matrix(0.05,0,0,0.05,39.95,0)" xlink:href="#J"/><use transform="matrix(0.05,0,0,0.05,44.95,0)" xlink:href="#C"/><use transform="matrix(0.05,0,0,0.05,48.900000000000006,0)" xlink:href="#K"/><use transform="matrix(0.05,0,0,0.05,58.900000000000006,0)" xlink:href="#L"/></g><path d="M205 0l-28-72H64L36 0H1l101-248h38L239 0h-34zm-38-99l-47-123c-12 45-31 82-46 123h93" id="N"/><g id="h"><use transform="matrix(0.05,0,0,0.05,0,0)" xlink:href="#N"/><use transform="matrix(0.05,0,0,0.05,12,0)" xlink:href="#I"/><use transform="matrix(0.05,0,0,0.05,22,0)" xlink:href="#I"/><use transform="matrix(0.05,0,0,0.05,32,0)" xlink:href="#G"/></g><linearGradient gradientUnits="userSpaceOnUse" id="i" x1="1639.45" y1="701.19" x2="1639.45" y2="593.15"><stop offset="0%" stop-color="#fea11b"/><stop offset="28.4%" stop-color="#fea51a"/><stop offset="54.7%" stop-color="#feb018"/><stop offset="80%" stop-color="#ffc314"/><stop offset="100%" stop-color="#ffd70f"/></linearGradient><path d="M1161-1018c0 201-122 330-278 388l342 618V0h-206L703-589H361V0H168v-1456h482c310-2 511 139 511 438zm-193 0c0-187-120-280-313-280H361v552h295c179 3 313-101 312-272" id="O"/><path d="M277-555c0 244 77 420 297 424 127 2 249-93 255-210h175C980-127 805 20 574 20 258 20 81-222 92-562c11-319 164-533 481-540 237-5 426 165 431 392H829c-7-133-115-242-256-240-209 4-296 166-296 395" id="P"/><path d="M341 0H156v-1082h185V0zm-91-1264c-68 0-108-42-109-105 0-62 41-107 109-107s110 44 110 107-42 105-110 105" id="Q"/><path d="M497-251l268-831h189L566 0H425L33-1082h189" id="R"/><g id="k"><use transform="matrix(0.0065107421875,0,0,0.0065107421875,0,0)" xlink:href="#O"/><use transform="matrix(0.0065107421875,0,0,0.0065107421875,8.2100458984375,0)" xlink:href="#u"/><use transform="matrix(0.0065107421875,0,0,0.0065107421875,15.274201171875,0)" xlink:href="#P"/><use transform="matrix(0.0065107421875,0,0,0.0065107421875,22.253716796874997,0)" xlink:href="#u"/><use transform="matrix(0.0065107421875,0,0,0.0065107421875,29.3178720703125,0)" xlink:href="#Q"/><use transform="matrix(0.0065107421875,0,0,0.0065107421875,32.5537109375,0)" xlink:href="#R"/><use transform="matrix(0.0065107421875,0,0,0.0065107421875,38.927727539062495,0)" xlink:href="#u"/><use transform="matrix(0.0065107421875,0,0,0.0065107421875,45.991882812499995,0)" xlink:href="#x"/></g><path d="M569-1476c255 0 440 146 439 390 0 143-91 314-274 512L344-151h731V0H121v-133l504-560c75-85 125-155 155-207 105-184 6-424-211-424-183 0-293 113-291 297H93c-3-270 199-449 476-449" id="S"/><use transform="matrix(0.0065107421875,0,0,0.0065107421875,0,0)" xlink:href="#S" id="l"/><filter id="j" filterUnits="objectBoundingBox" x="-.02" y="0" width="1.03" height="1.02"><feOffset result="offOut" in="SourceAlpha" dy="1"/><feGaussianBlur result="blurOut" in="offOut" stdDeviation=".75"/><feColorMatrix result="colorOut" in="blurOut" values="0 0 0 0 0 0 0 0 0 0 0 0 0 0 0 0 0 0 0.4 0"/><feBlend in="SourceGraphic" in2="colorOut"/></filter><path d="M729 0H543v-1233l-373 137v-168l530-199h29V0" id="T"/><use transform="matrix(0.0065107421875,0,0,0.0065107421875,0,0)" xlink:href="#T" id="m"/><path d="M240 0l2-218c-23 76-54 145-80 218h-23L58-218 59 0H30v-248h44l77 211c21-75 51-140 76-211h43V0h-30" id="U"/><path d="M27 0v-27h64v-190l-56 39v-29l58-41h29v221h61V0H27" id="V"/><g id="n"><use transform="matrix(0.05,0,0,0.05,0,0)" xlink:href="#U"/><use transform="matrix(0.05,0,0,0.05,14.950000000000001,0)" xlink:href="#V"/></g><path d="M101-251c82-7 93 87 43 132L82-64C71-53 59-42 53-27h129V0H18c2-99 128-94 128-182 0-28-16-43-45-43s-46 15-49 41l-32-3c6-41 34-60 81-64" id="W"/><g id="o"><use transform="matrix(0.05,0,0,0.05,0,0)" xlink:href="#U"/><use transform="matrix(0.05,0,0,0.05,14.950000000000001,0)" xlink:href="#W"/></g><g id="p"><use transform="matrix(0.05,0,0,0.05,0,0)" xlink:href="#E"/><use transform="matrix(0.05,0,0,0.05,12,0)" xlink:href="#F"/><use transform="matrix(0.05,0,0,0.05,22,0)" xlink:href="#G"/></g><path d="M127-220V0H93v-220H8v-28h204v28h-85" id="X"/><g id="q"><use transform="matrix(0.05,0,0,0.05,0,0)" xlink:href="#X"/><use transform="matrix(0.05,0,0,0.05,8.950000000000001,0)" xlink:href="#K"/><use transform="matrix(0.05,0,0,0.05,18.950000000000003,0)" xlink:href="#I"/><use transform="matrix(0.05,0,0,0.05,28.950000000000003,0)" xlink:href="#C"/><use transform="matrix(0.05,0,0,0.05,32.900000000000006,0)" xlink:href="#D"/></g><path d="M141-36C126-15 110 5 73 4 37 3 15-17 15-53c-1-64 63-63 125-63 3-35-9-54-41-54-24 1-41 7-42 31l-33-3c5-37 33-52 76-52 45 0 72 20 72 64v82c-1 20 7 32 28 27v20c-31 9-61-2-59-35zM48-53c0 20 12 33 32 33 41-3 63-29 60-74-43 2-92-5-92 41" id="Y"/><path d="M177-190C167-65 218 103 67 71c-23-6-38-20-44-43l32-5c15 47 100 32 89-28v-30C133-14 115 1 83 1 29 1 15-40 15-95c0-56 16-97 71-98 29-1 48 16 59 35 1-10 0-23 2-32h30zM94-22c36 0 50-32 50-73 0-42-14-75-50-75-39 0-46 34-46 75s6 73 46 73" id="Z"/><g id="r"><use transform="matrix(0.05,0,0,0.05,0,0)" xlink:href="#U"/><use transform="matrix(0.05,0,0,0.05,14.950000000000001,0)" xlink:href="#z"/><use transform="matrix(0.05,0,0,0.05,24.950000000000003,0)" xlink:href="#G"/><use transform="matrix(0.05,0,0,0.05,33.95,0)" xlink:href="#G"/><use transform="matrix(0.05,0,0,0.05,42.95,0)" xlink:href="#Y"/><use transform="matrix(0.05,0,0,0.05,52.95,0)" xlink:href="#Z"/><use transform="matrix(0.05,0,0,0.05,62.95,0)" xlink:href="#z"/></g><path d="M24 0v-261h32V0H24" id="aa"/><g id="s"><use transform="matrix(0.05,0,0,0.05,0,0)" xlink:href="#M"/><use transform="matrix(0.05,0,0,0.05,10.950000000000001,0)" xlink:href="#C"/><use transform="matrix(0.05,0,0,0.05,14.9,0)" xlink:href="#aa"/><use transform="matrix(0.05,0,0,0.05,18.85,0)" xlink:href="#J"/><use transform="matrix(0.05,0,0,0.05,23.85,0)" xlink:href="#z"/><use transform="matrix(0.05,0,0,0.05,33.85,0)" xlink:href="#A"/></g></defs></g></svg>